Coordinates
version=1
nRows=12
nColumns=24
inDegrees=yes

Units are S.I. units (second, meters, Newtons, ...)
If the header above contains a line with 'inDegrees', this indicates whether rotational values are in degrees (yes) or radians (no).

endheader
time	pelvis_tilt	pelvis_list	pelvis_rotation	pelvis_tx	pelvis_ty	pelvis_tz	hip_flexion_r	hip_adduction_r	hip_rotation_r	knee_angle_r	ankle_angle_r	subtalar_angle_r	mtp_angle_r	hip_flexion_l	hip_adduction_l	hip_rotation_l	knee_angle_l	ankle_angle_l	subtalar_angle_l	mtp_angle_l	lumbar_extension	lumbar_bending	lumbar_rotation
     28.50000000	    -12.37452558	      8.28576503	      2.51019939	      0.94782793	      0.94675810	     -0.58623379	    -13.43495707	     -5.34128137	     -0.78449011	    -20.22650182	     13.55700873	    -12.55953320	      0.00000000	     39.92415094	      9.71094582	     -1.59110177	    -54.37486639	     29.44478630	      3.23915157	      0.00000000	    -34.86412454	    -11.42021821	      2.72339771
     28.51000000	    -12.08493984	      8.32701907	      2.51214808	      0.95047335	      0.94847655	     -0.58825764	    -12.05728841	     -5.77982087	     -1.76800925	    -24.01461804	     11.29051346	    -11.43115179	      0.00000000	     38.46292680	      9.88035282	     -1.55609541	    -53.82590587	     29.89969743	      3.34594945	      0.00000000	    -34.97124666	    -11.35427908	      2.60456809
     28.52000000	    -11.77711823	      8.29831432	      2.45130895	      0.95303301	      0.95060096	     -0.59017079	    -10.55079505	     -6.17975476	     -2.45698282	    -27.86060591	      8.38997070	    -10.74340621	      0.00000000	     36.87650672	      9.96026552	     -1.47129981	    -53.09422137	     30.36800780	      3.43321236	      0.00000000	    -35.08228333	    -11.25298848	      2.58980201
     28.53000000	    -11.48371840	      8.40280067	      2.35420232	      0.95533470	      0.95316182	     -0.59200083	     -8.79507264	     -6.69656690	     -2.79758238	    -31.96298311	      4.99475931	    -10.73719426	      0.00000000	     35.23819476	     10.16813165	     -1.38126961	    -52.22023650	     30.80172210	      3.60242815	      0.00000000	    -35.21468463	    -11.29482658	      2.35391067
     28.54000000	    -11.29274048	      8.36869280	      2.06107071	      0.95759844	      0.95568160	     -0.59327755	     -6.73787279	     -6.96411518	     -2.48060220	    -36.13967046	      0.73069461	    -11.80339863	      0.00000000	     33.66603976	     10.14880800	     -1.35844038	    -51.20507982	     31.28435782	      3.61442454	      0.00000000	    -35.17501181	    -11.32279368	      2.47444427
     28.55000000	    -11.22712599	      8.26732356	      1.99713822	      0.95921635	      0.95842448	     -0.59507789	     -4.44597000	     -7.08699314	     -2.21021971	    -40.32550835	     -4.28689129	    -13.31954130	      0.00000000	     32.21407456	     10.27189666	     -0.98102253	    -50.07162480	     31.48287291	      3.24067110	      0.00000000	    -35.08412632	    -11.13259453	      2.32664376
     28.56000000	    -11.21353310	      8.17575835	      1.79252395	      0.96080315	      0.96123702	     -0.59632045	     -2.03480119	     -7.14007830	     -1.73630816	    -44.38991009	     -9.66845025	    -15.33149309	      0.00000000	     30.83214868	     10.26021101	     -0.78450286	    -48.89043014	     31.65658737	      3.15259743	      0.00000000	    -34.92338615	    -11.03148273	      2.40944477
     28.57000000	    -11.22755567	      8.15371820	      1.75795593	      0.96191877	      0.96435958	     -0.59778879	      0.28963702	     -7.23750978	     -1.58332207	    -48.05909120	    -15.28319098	    -17.95654213	      0.00000000	     29.45105413	     10.41457827	     -0.50054635	    -47.63411020	     31.63619650	      2.91318507	      0.00000000	    -34.80910260	    -10.93435242	      2.07382830
     28.58000000	    -11.26190450	      8.17095293	      1.61904235	      0.96302290	      0.96746473	     -0.59883199	      2.34704764	     -7.38552078	     -1.52167454	    -51.06396567	    -19.32380502	    -19.96841064	      0.00000000	     28.05364902	     10.48570379	     -0.35831329	    -46.24530065	     31.64412403	      2.82755233	      0.00000000	    -34.67756035	    -10.91593343	      2.03423824
     28.59000000	    -11.30928358	      8.05815759	      1.72833459	      0.96402124	      0.97089231	     -0.60028548	      4.53923410	     -7.42838173	     -1.55053336	    -54.17849665	    -19.07820214	    -20.16324709	      0.00000000	     26.59811195	     10.55080038	      0.08340894	    -44.73924601	     31.56427288	      2.78691038	      0.00000000	    -34.58687073	    -10.61695966	      1.89044029
     28.60000000	    -11.41940566	      7.96066181	      1.73511238	      0.96480404	      0.97426213	     -0.60131596	      6.86106850	     -7.38893444	     -1.36049594	    -57.23110487	    -16.52358759	    -19.32771499	      0.00000000	     25.14694157	     10.53974761	      0.41149156	    -43.07930916	     31.38718604	      2.71988457	      0.00000000	    -34.45053689	    -10.43506365	      1.77170551
     28.61000000	    -11.46393424	      7.86335360	      1.85889386	      0.96537836	      0.97797633	     -0.60249510	      9.07280165	     -7.35844832	     -1.27304922	    -59.97307945	    -13.48752449	    -17.99737525	      0.00000000	     23.59388822	     10.57051489	      0.87300413	    -41.34323295	     31.17185522	      2.65297329	      0.00000000	    -34.44219649	    -10.18864226	      1.42059850
